<?xml version="1.0" encoding="utf-8"?>
<!-- Generator: Adobe Illustrator 23.1.0, SVG Export Plug-In . SVG Version: 6.00 Build 0)  -->
<svg version="1.1" id="Слой_1" xmlns="http://www.w3.org/2000/svg" xmlns:xlink="http://www.w3.org/1999/xlink" x="0px" y="0px"
	 viewBox="0 0 512 512" style="enable-background:new 0 0 512 512;" xml:space="preserve">
<style type="text/css">
	.st0{fill:none;stroke:#F5B895;stroke-width:32;stroke-miterlimit:10;}
	.st1{fill:none;stroke:#F5B895;stroke-width:32;stroke-linecap:round;stroke-linejoin:round;}
</style>
<title>ionicons-v5-a</title>
<path class="st0" d="M416.1,272c0-88.4-71.6-160-160-160s-160,71.6-160,160s71.6,160,160,160S416.1,360.4,416.1,272z"/>
<path class="st0" d="M142.1,91.2C133.7,84,123.1,80.1,112,80l-2.8,0.1C83.7,81.6,64,104,64.1,131c0,13.2,4.7,19.4,10.9,27.2
	c0.8,1,2,1.7,3.2,1.8h0.9c1,0,1.9-0.5,2.5-1.3L142.4,99c1-1.1,1.6-2.5,1.6-4C143.9,93.5,143.2,92.2,142.1,91.2z"/>
<path class="st0" d="M369.9,91.2C378.3,84,388.9,80.1,400,80l2.8,0.1c25.5,1.5,45.2,23.9,45.1,50.9c0,13.2-4.7,19.4-10.9,27.2
	c-0.8,1-2,1.7-3.2,1.8h-0.9c-1,0-1.9-0.5-2.5-1.3L369.6,99c-1-1.1-1.6-2.5-1.5-4C368.1,93.5,368.8,92.2,369.9,91.2z"/>
<polyline class="st1" points="256.1,160 256.1,272 176.1,272 "/>
<line class="st1" x1="416.1" y1="432" x2="376.1" y2="392"/>
<line class="st1" x1="96.1" y1="432" x2="136.1" y2="392"/>
</svg>
