<?xml version="1.0" encoding="utf-8"?>
<!-- Generator: Adobe Illustrator 23.1.0, SVG Export Plug-In . SVG Version: 6.00 Build 0)  -->
<svg version="1.1" id="Слой_1" xmlns="http://www.w3.org/2000/svg" xmlns:xlink="http://www.w3.org/1999/xlink" x="0px" y="0px"
	 viewBox="0 0 512 512" style="enable-background:new 0 0 512 512;" xml:space="preserve">
<style type="text/css">
	.st0{fill:none;stroke:#F5B895;stroke-width:32;stroke-linejoin:round;}
	.st1{fill:none;stroke:#F5B895;stroke-width:32;stroke-linecap:round;stroke-linejoin:round;}
</style>
<title>ionicons-v5-e</title>
<path class="st0" d="M336,264.1V436c0,24.3-19,44-43,44H107c-23.9,0-43-19.7-43-44V172c0.1-24.2,19.8-43.9,44-44h94.1
	c6.6,0,12.9,2.7,17.5,7.4l109.2,111C333.4,251.1,336,257.5,336,264.1z"/>
<path class="st1" d="M200,128v108c0.2,15.4,12.6,27.8,28,28h108"/>
<path class="st0" d="M176,128V76c0.1-24.2,19.8-43.9,44-44h94c6.6,0,13,2.7,17.6,7.4l109.1,111c4.6,4.7,7.2,11,7.2,17.6v172
	c0,24.3-19,44-43,44h-61"/>
<path class="st1" d="M312,32v108c0.2,15.4,12.6,27.8,28,28h108"/>
</svg>
