<?xml version="1.0" encoding="utf-8"?>
<!-- Generator: Adobe Illustrator 23.1.0, SVG Export Plug-In . SVG Version: 6.00 Build 0)  -->
<svg version="1.1" id="Слой_1" xmlns="http://www.w3.org/2000/svg" xmlns:xlink="http://www.w3.org/1999/xlink" x="0px" y="0px"
	 viewBox="0 0 512 512" style="enable-background:new 0 0 512 512;" xml:space="preserve">
<style type="text/css">
	.st0{fill:none;stroke:#F5B895;stroke-width:32;stroke-linejoin:round;}
	.st1{fill:none;stroke:#F5B895;stroke-width:32;stroke-miterlimit:10;}
	.st2{fill:none;stroke:#F5B895;stroke-width:32;stroke-linecap:round;stroke-linejoin:round;}
</style>
<title>ionicons-v5-e</title>
<path class="st0" d="M432,112V96c-0.1-26.5-21.5-47.9-48-48H64c-26.5,0.1-47.9,21.5-48,48v256c0.1,26.5,21.5,47.9,48,48h16"/>
<path class="st0" d="M142,128h308c25.4,0,46,20.6,46,46v244c0,25.4-20.6,46-46,46H142c-25.4,0-46-20.6-46-46V174
	C96,148.6,116.6,128,142,128z"/>
<ellipse class="st1" cx="372.9" cy="219.6" rx="30.8" ry="30.6"/>
<path class="st2" d="M342.1,372.2L255,285.8c-11.6-11.4-30-11.9-42.2-1.2L96,387.6"/>
<path class="st2" d="M265.2,464l118.6-117.7c11.3-11.1,29.2-12,41.5-1.9l70.7,58.5"/>
</svg>
