<?xml version="1.0" encoding="utf-8"?>
<!-- Generator: Adobe Illustrator 23.1.0, SVG Export Plug-In . SVG Version: 6.00 Build 0)  -->
<svg version="1.1" id="Слой_1" xmlns="http://www.w3.org/2000/svg" xmlns:xlink="http://www.w3.org/1999/xlink" x="0px" y="0px"
	 viewBox="0 0 811.3 811.3" style="enable-background:new 0 0 811.3 811.3;" xml:space="preserve">
<style type="text/css">
	.st0{fill:#004F77;}
	.st1{fill:#C9C9C9;}
</style>
<g>
	<g>
		<g>
			<path class="st0" d="M198.1,435.6c-27.9,0-52.4-7-72.8-20.8C105,401,89.2,382,78.3,358.4C67.5,334.8,62,308.1,62,279
				c0-42.5,9.5-81.7,28.4-116.4c18.8-34.7,44.6-62.5,76.8-82.5c32.1-20,67.3-30.2,104.6-30.2c22,0,40,6.3,53.4,18.6
				c13.4,12.4,20.2,28.7,20.2,48.7c0,15.8-4.3,32.4-12.7,49.3c-8.5,16.9-19.7,32-33.5,44.7c-13.7,12.7-28.2,21.4-43.2,25.9l-4.8-8.6
				c14.7-6.6,26.8-17.3,36-31.8c9.2-14.6,13.9-30.3,13.9-46.7c0-20.9-6.4-38-18.9-50.7c-12.6-12.7-29.5-19.2-50.4-19.2
				s-40.8,7.6-59.3,22.5c-18.4,14.9-33.4,35.1-44.5,59.9s-16.7,51.6-16.7,79.8c0,30.5,4.8,57.8,14.1,81
				c9.4,23.3,22.9,41.5,40.1,54.2s37.2,19.1,59.5,19.1c16.7,0,33.3-3.6,49.2-10.7c15.8-7,30.5-17.4,43.6-30.8l10.8,10.8
				C291.9,412.2,248,435.6,198.1,435.6z"/>
			<path class="st1" d="M271.7,50.5c21.9,0,39.7,6.2,53.1,18.5c13.3,12.3,20,28.5,20,48.3c0,15.8-4.3,32.3-12.7,49.1
				c-8.4,16.9-19.7,31.9-33.4,44.6c-13.5,12.5-27.9,21.1-42.7,25.6l-4.3-7.7c14.6-6.7,26.6-17.4,35.7-31.8c9.3-14.7,14-30.5,14-47
				c0-21-6.4-38.2-19.1-51s-29.7-19.3-50.8-19.3c-21,0-41,7.6-59.6,22.7c-18.5,15-33.5,35.2-44.6,60.1s-16.8,51.8-16.8,80
				c0,30.6,4.8,57.9,14.2,81.2c9.4,23.4,23,41.7,40.2,54.4c17.3,12.8,37.4,19.2,59.8,19.2c16.8,0,33.4-3.6,49.4-10.8
				c15.7-7,30.3-17.3,43.4-30.5l10.1,10.1c-18.1,22.7-38.1,40.1-59.5,51.5c-21.6,11.5-45.2,17.4-70.1,17.4c-27.8,0-52.2-7-72.5-20.7
				s-36-32.6-46.9-56.2C68,334.6,62.5,308,62.5,279c0-42.4,9.5-81.5,28.3-116.1s44.5-62.3,76.6-82.3
				C199.4,60.6,234.5,50.5,271.7,50.5 M271.7,49.5c-37.6,0-72.5,10.1-104.9,30.3c-32.3,20.2-58,47.7-76.9,82.7
				c-19,35-28.4,73.8-28.4,116.6c0,29.2,5.5,55.7,16.4,79.6c11,23.8,26.7,42.7,47.2,56.6s44.9,20.9,73,20.9
				c50.4,0,94.1-23.3,130.9-69.9l-11.5-11.5c-13.2,13.6-27.8,23.9-43.8,31s-32.3,10.7-49,10.7c-22.3,0-42-6.3-59.2-19
				s-30.5-30.7-39.9-54s-14.1-50.3-14.1-80.9c0-28.2,5.6-54.7,16.7-79.6s25.9-44.8,44.3-59.7s38.1-22.4,58.9-22.4
				c20.9,0,37.6,6.4,50.1,19c12.5,12.7,18.8,29.5,18.8,50.3c0,16.4-4.6,31.8-13.8,46.4c-9.2,14.6-21.3,25.2-36.3,31.8l5.2,9.4
				c15.3-4.5,29.9-13.2,43.8-26.1c13.9-12.9,25.1-27.8,33.6-44.9c8.5-17,12.8-33.6,12.8-49.6c0-20.2-6.8-36.5-20.3-49
				C311.9,55.8,293.9,49.5,271.7,49.5L271.7,49.5z"/>
		</g>
	</g>
</g>
<g>
	<g>
		<g>
			<path class="st0" d="M313.4,567.3c-15.3,0-30.9-3.4-46.6-10.2c-19-8.2-34.7-20.6-46.6-36.8c-12-16.2-19.1-34.6-21.4-54.7
				c-2.2-20.1,0.9-40.2,9.4-59.9c14.9-34.5,38.3-60.4,69.7-77c24.8-13.1,51.8-19.7,80.2-19.7c7.4,0,15.1,0.5,22.8,1.3l4,12.9
				c-30.3,5-56.6,14-78.2,26.9c-21.8,12.9-38.5,32.4-49.5,57.9c-6.2,14.4-9.4,30.3-9.6,47.5c-0.2,17.1,3.8,33.4,11.8,48.2
				c8,14.8,20.7,26.1,37.6,33.4c10.6,4.6,21.2,6.9,31.6,6.9l0,0c3.1,0,6.3-0.2,9.4-0.6c13.5-1.8,25.7-6.9,36.3-15.2
				c10.6-8.3,18.9-19.2,24.5-32.3c6.5-15,8.6-32.6,6.2-52.1s-8.6-38.2-18.6-55.3c-9.8-16.8-22.1-29.4-36.4-37.3
				c8.9-3.5,19.2-6.8,30.6-9.8c11.9-3.2,24-6.1,35.9-8.8c18.6,16.7,29.9,38.2,33.8,64c3.9,25.9,0.3,51.7-10.4,76.7
				c-9.6,22.2-23.5,41.8-41.3,58.4c-17.8,16.5-38.5,27.6-61.5,32.9C329.3,566.4,321.3,567.3,313.4,567.3z"/>
			<path class="st1" d="M358.2,309.6c7.3,0,14.9,0.4,22.4,1.3l3.8,12.1c-30.1,5-56.3,14.1-77.8,26.8c-21.9,13-38.7,32.5-49.7,58.2
				c-6.2,14.4-9.5,30.5-9.7,47.7s3.8,33.5,11.8,48.4c8.1,14.9,20.8,26.3,37.9,33.6c10.6,4.6,21.4,6.9,31.8,6.9
				c3.1,0,6.3-0.2,9.5-0.6c13.6-1.8,25.9-6.9,36.5-15.3c10.7-8.4,19-19.3,24.7-32.5c6.5-15.1,8.6-32.7,6.2-52.4
				c-2.4-19.6-8.6-38.3-18.7-55.5c-9.6-16.5-21.6-29-35.7-37c8.6-3.3,18.6-6.5,29.6-9.4c11.8-3.1,23.8-6.1,35.6-8.7
				c18.4,16.6,29.6,37.9,33.4,63.5c3.8,25.8,0.3,51.5-10.4,76.5c-9.5,22.1-23.4,41.7-41.2,58.2c-17.8,16.5-38.4,27.5-61.2,32.8
				c-7.8,1.8-15.8,2.7-23.6,2.7c-15.2,0-30.8-3.4-46.4-10.1c-18.9-8.2-34.5-20.5-46.4-36.6c-11.9-16.1-19.1-34.5-21.3-54.5
				s0.9-40.1,9.4-59.6c14.8-34.4,38.2-60.2,69.5-76.7C302.9,316.2,329.8,309.6,358.2,309.6L358.2,309.6 M358.2,308.6
				c-28.7,0-55.5,6.6-80.5,19.8c-31.6,16.7-54.9,42.4-69.9,77.2c-8.5,19.8-11.7,39.8-9.4,60.1c2.2,20.3,9.4,38.6,21.5,55
				c12.1,16.4,27.7,28.7,46.8,37c15.8,6.8,31.4,10.2,46.8,10.2c8,0,16-0.9,23.9-2.7c23.1-5.4,43.7-16.4,61.7-33.1
				c18-16.7,31.8-36.2,41.4-58.5c10.9-25.2,14.4-50.9,10.5-77s-15.3-47.6-34.1-64.4c-12.2,2.7-24.2,5.7-36.2,8.8
				c-12,3.2-22.5,6.6-31.7,10.2c14.8,7.9,27.2,20.4,37.2,37.6s16.2,35.6,18.5,55.1c2.4,19.6,0.3,36.9-6.2,51.9
				c-5.6,13.1-13.8,23.8-24.4,32.1S351.5,541.3,338,543c-3.1,0.4-6.2,0.6-9.3,0.6c-10.4,0-20.9-2.3-31.4-6.8
				c-16.9-7.3-29.4-18.4-37.4-33.2s-11.9-30.8-11.7-47.9s3.4-32.9,9.6-47.3c11-25.5,27.4-44.8,49.3-57.7
				c21.8-12.9,48.1-21.9,78.6-26.9l-4.3-13.8C373.5,309.1,365.8,308.6,358.2,308.6L358.2,308.6z"/>
		</g>
	</g>
</g>
<g>
	<g>
		<g>
			<path class="st0" d="M376.7,533c0-4.9-1.3-9.5-4-13.6s-6.6-6.2-11.6-6.2c-8.4,0-17.5,7.4-27.2,22.1l-7.2-7.7
				c4.5-12.2,11.9-22.7,22.2-31.1c10.3-8.4,20.7-12.7,31-12.7c14.4,0,25.3,3.5,32.3,10.3s10.5,16.4,10.5,28.3v137.2l0.5,0.5h2.1
				l0.5-0.4c9.3-30.8,18.5-58,27.1-80.8s20.9-44.6,36.4-64.8c15.5-20.1,33.6-30.3,53.9-30.3c13.6,0,22.6,5.1,26.7,15.1
				c4.1,10.2,6.2,24.4,6.2,42.3V705c0,3.9,1.3,7.9,3.7,12c2.5,4.1,6.2,6.2,10.9,6.2c6,0,11.2-2,15.5-5.9c4.1-3.7,8.2-8.5,12.2-14.2
				l7.2,7.2c-5.2,10.9-13,20.5-23.2,28.5c-10.3,8.1-20.2,12.2-29.4,12.2c-13.7,0-24.5-4.3-32-12.9c-7.5-8.5-11.4-21.8-11.4-39.3
				V560.6c0-5.2-0.5-9.7-1.6-13.2c-1.1-3.7-3.9-5.6-8.3-5.6c-14.4,0-29.3,14-44.3,41.5c-14.9,27.4-27.8,58.4-38.4,92.2
				c-10.5,33.4-15.8,55.9-15.9,66.8l-44.4,13.3L376.7,533L376.7,533z"/>
			<path class="st1" d="M543.1,484.4c13.6,0,22.2,4.8,26.2,14.8c4.1,10.1,6.2,24.3,6.2,42.1v16.2v147.6c0,4,1.3,8.1,3.8,12.3
				c2.6,4.3,6.4,6.5,11.3,6.5c6.2,0,11.5-2,15.8-6c4-3.6,8-8.3,12-13.8l6.5,6.5c-5.1,10.7-12.8,20.1-22.9,28c-10.2,8-20,12-29.1,12
				c-13.6,0-24.2-4.3-31.6-12.7c-7.5-8.5-11.2-21.6-11.2-39V560.6c0-5.3-0.5-9.8-1.6-13.3c-1.2-3.9-4.2-5.9-8.8-5.9
				c-14.6,0-29.6,14-44.7,41.7c-14.9,27.4-27.8,58.4-38.4,92.3c-10.3,33.1-15.7,55.5-15.9,66.6l-43.4,13V533c0-5-1.4-9.7-4.1-13.8
				c-2.8-4.3-6.9-6.5-12.1-6.5c-8.5,0-17.6,7.3-27.3,21.8l-6.5-7c4.4-12,11.8-22.3,21.9-30.6c10.2-8.3,20.5-12.6,30.7-12.6
				c14.3,0,25,3.4,31.9,10.1s10.4,16.2,10.4,28v137.2l1,1h2.1l1-0.7c9.3-30.8,18.5-58,27.1-80.8c8.6-22.7,20.8-44.5,36.4-64.7
				C505,494.6,523,484.4,543.1,484.4 M543.1,483.4c-20.5,0-38.6,10.2-54.3,30.5c-15.7,20.3-27.8,42-36.5,64.9
				c-8.7,23-17.7,49.9-27.1,80.9h-2.1V522.6c0-12.2-3.6-21.7-10.7-28.7s-18-10.4-32.6-10.4c-10.4,0-20.9,4.3-31.3,12.8
				s-17.9,19-22.4,31.6l7.8,8.3c9.7-14.9,18.8-22.4,27.1-22.4c4.9,0,8.6,2,11.2,6s3.9,8.4,3.9,13.3v223.3l45.4-13.6
				c0-10.8,5.3-33.1,15.9-67s23.4-64.6,38.3-92.1c15-27.5,29.6-41.2,43.8-41.2c4.2,0,6.8,1.7,7.8,5.2s1.6,7.8,1.6,13v138.2
				c0,17.7,3.8,31,11.5,39.6c7.6,8.7,18.4,13,32.3,13c9.4,0,19.3-4.1,29.7-12.3s18.3-17.8,23.5-28.9l-7.8-7.8
				c-4.2,5.9-8.3,10.8-12.5,14.6s-9.2,5.7-15.1,5.7c-4.5,0-8-2-10.4-6s-3.7-7.9-3.7-11.7V557.5v-16.2c0-18.1-2.1-32.3-6.3-42.5
				C566.1,488.6,557,483.4,543.1,483.4L543.1,483.4z"/>
		</g>
	</g>
</g>
<g>
	<path class="st0" d="M590.1,433.1L590.1,433.1v-27.7l0,0V347c0-22.3,3.3-43.4,9.8-62.5s17.2-35,31.9-47.1
		c14.6-12.1,34.1-18.3,57.7-18.3c8.1,0,17.9,3.3,29,9.7c10.9,6.3,20.2,14.3,27.5,23.8l-27.6,15.5c-4.5-9.3-10.8-17.4-18.7-23.9
		c-8-6.7-17.8-10.1-28.9-10.1c-15.2,0-26.2,5.2-32.7,15.6c-6.4,10.3-9.7,22.4-9.7,35.9v119.8l0.5,0.5h86.2
		c-23.3,6.5-43.1,15.7-57.4,26.7h-28.8l-0.5,0.5v194.3c-19.7,18-32.2,42.5-35.1,68.9l-3.1,1.5V433.1H590.1z"/>
	<g>
		<path class="st1" d="M689.4,219.6c8,0,17.7,3.2,28.7,9.6c10.7,6.2,19.8,14,27,23.3l-26.7,14.9c-4.6-9.2-10.8-17.1-18.6-23.6
			c-8.1-6.8-18-10.2-29.2-10.2c-15.4,0-26.5,5.3-33.1,15.8c-6.5,10.3-9.8,22.5-9.8,36.2v119.8l1,1h82.7c-21.8,6.4-40.3,15.2-54,25.7
			h-28.7l-1,1v194.1c-19.7,18-32.1,42.4-35.1,68.8l-2.2,1.1v-264l0,0v-27.7l0,0V347c0-22.3,3.3-43.3,9.8-62.4
			c6.5-19,17.1-34.8,31.7-46.9C646.6,225.8,665.9,219.6,689.4,219.6 M689.4,218.6c-23.9,0-43.3,6.1-58.1,18.4
			c-14.8,12.3-25.5,28-32,47.4c-6.5,19.3-9.8,40.2-9.8,62.7v58.4l0,0v27.7l0,0v265.5l4.1-2c3-27.3,15.9-51.5,35.2-69V433.1h29
			c15-11.5,36-21.1,61-27.7h-90V285.7c0-13.5,3.2-25.4,9.6-35.7c6.4-10.2,17.1-15.4,32.2-15.4c11.1,0,20.6,3.3,28.6,9.9
			c8,6.6,14.2,14.7,18.8,24.2l28.6-16c-7.4-9.8-16.7-17.9-28-24.4C707.4,221.9,697.7,218.6,689.4,218.6L689.4,218.6z"/>
	</g>
</g>
</svg>
