<?xml version="1.0" encoding="utf-8"?>
<!-- Generator: Adobe Illustrator 23.1.0, SVG Export Plug-In . SVG Version: 6.00 Build 0)  -->
<svg version="1.1" id="Layer_1" xmlns="http://www.w3.org/2000/svg" xmlns:xlink="http://www.w3.org/1999/xlink" x="0px" y="0px"
	 viewBox="0 0 481.9 481.9" style="enable-background:new 0 0 481.9 481.9;" xml:space="preserve">
<style type="text/css">
	.st0{fill:#C40000;}
</style>
<path class="st0" d="M95.3,425c-11.9,0-21.2-6.8-25.4-11c-14.4-16.9-14.4-31.3-11.9-40.6c1.7-8.5,6.8-16.1,14.4-21.2
	c11-8.5,41.5-29.6,86.4-48.3c23.7-43.2,39.8-77.9,50.8-105.8c-18.6-35.6-25.4-64.3-27.1-78.7c-1.7-11.9-0.8-23.7,2.5-33.9
	c8.5-27.1,27.1-27.9,34.7-27.1c1.7,0,31.3,4.2,36.4,46.6c0,1.7,3.4,28.8-19.5,92.3c14.4,24.6,34.7,51.6,66,77.9
	c29.6,0,61.8,2.5,95.7,11c7.6,1.7,14.4,5.9,19.5,11.9c8.5,9.3,10.2,21.2,5.9,33l0,0c0,0-1.7,5.9-6.8,11.9
	c-9.3,12.7-27.1,16.9-41.5,9.3c-32.2-16.9-59.3-34.7-81.3-53.3c-44.9,1.7-84.7,11.9-116.8,24.6c-14.4,26.2-32.2,55-52.5,87.2
	c-4.2,5.9-9.3,11-16.1,13.5l0,0C102.9,424.2,98.7,425,95.3,425z M136.8,339.5c-25.4,13.5-43.2,25.4-50,31.3
	c-2.5,2.5-5.1,5.1-5.1,7.6c-1.7,5.9,0.8,11.9,6.8,18.6c0,0,5.1,4.2,10.2,2.5l0,0c1.7-0.8,3.4-1.7,4.2-4.2
	C114.7,375.9,126.6,357.3,136.8,339.5z M334,298.9c15.2,10.2,32.2,21.2,50.8,30.5c3.4,1.7,7.6,0.8,10.2-2.5s3.4-5.9,3.4-5.9
	c1.7-4.2,1.7-5.9-0.8-8.5c-1.7-1.7-4.2-3.4-7.6-4.2C371.3,303.1,352.7,300.6,334,298.9z M224,223.5c-8.5,19.5-18.6,41.5-32.2,66.9
	c22.9-6.8,47.4-12.7,74.5-15.2C249.4,257.4,235,239.6,224,223.5z M215.5,81.3c-3.4,0-5.9,3.4-8.5,11c-2.5,6.8-2.5,14.4-1.7,22.9
	c1.7,10.2,5.1,27.1,14.4,49.1c12.7-40.6,11-57.6,11-57.6C228.2,83.8,216.3,81.3,215.5,81.3L215.5,81.3z"/>
</svg>
